<svg width="24" height="24" viewBox="0 0 24 24" fill="none" xmlns="http://www.w3.org/2000/svg">
<path d="M19.7583 14.4866C19.2464 13.9537 18.6291 13.6688 17.9748 13.6688C17.3258 13.6688 16.7032 13.9484 16.1703 14.4813L14.5029 16.1434C14.3657 16.0695 14.2286 16.0009 14.0967 15.9323C13.9067 15.8374 13.7273 15.7477 13.5743 15.6527C12.0125 14.6607 10.5931 13.368 9.23179 11.6954C8.57224 10.8617 8.12902 10.1599 7.80716 9.44762C8.23982 9.05189 8.64083 8.64033 9.03129 8.2446C9.17903 8.09686 9.32677 7.94384 9.47451 7.7961C10.5826 6.68805 10.5826 5.25286 9.47451 4.14482L8.03404 2.70435C7.87047 2.54078 7.70163 2.37194 7.54334 2.20309C7.22675 1.87596 6.89434 1.53826 6.55137 1.22168C6.03956 0.715142 5.42749 0.446045 4.78377 0.446045C4.14005 0.446045 3.51743 0.715142 2.98979 1.22168C2.98451 1.22696 2.98451 1.22696 2.97923 1.23223L1.18525 3.04204C0.509868 3.71743 0.124689 4.54055 0.0402664 5.49558C-0.0863677 7.0363 0.367404 8.47148 0.715648 9.41068C1.57043 11.7165 2.84732 13.8534 4.75211 16.1434C7.06318 18.903 9.84386 21.0821 13.0203 22.6176C14.2338 23.1927 15.8537 23.8734 17.6635 23.9894C17.7743 23.9947 17.8904 24 17.9959 24C19.2148 24 20.2384 23.562 21.0404 22.6914C21.0457 22.6809 21.0562 22.6756 21.0615 22.6651C21.3359 22.3326 21.6525 22.0319 21.9849 21.71C22.2118 21.4937 22.4439 21.2668 22.6708 21.0294C23.1932 20.4859 23.4676 19.8527 23.4676 19.2037C23.4676 18.5494 23.1879 17.9216 22.655 17.3939L19.7583 14.4866ZM21.6472 20.0427C21.6419 20.0427 21.6419 20.048 21.6472 20.0427C21.4414 20.2643 21.2304 20.4648 21.0035 20.6864C20.6605 21.0135 20.3123 21.3565 19.9851 21.7417C19.4522 22.3115 18.8243 22.5806 18.0012 22.5806C17.9221 22.5806 17.8376 22.5806 17.7585 22.5754C16.1914 22.4751 14.7351 21.863 13.6429 21.3407C10.6564 19.8949 8.03404 17.8424 5.85488 15.2411C4.05562 13.0725 2.8526 11.0675 2.05586 8.9147C1.56515 7.60087 1.38575 6.57725 1.4649 5.61166C1.51766 4.99432 1.7551 4.48251 2.19305 4.04456L3.99231 2.2453C4.25085 2.00259 4.52522 1.87068 4.79432 1.87068C5.12674 1.87068 5.39583 2.07118 5.56468 2.24003C5.56996 2.2453 5.57523 2.25058 5.58051 2.25586C5.90237 2.55661 6.2084 2.86792 6.53026 3.20034C6.69383 3.36918 6.86268 3.53803 7.03152 3.71215L8.47199 5.15261C9.03129 5.71191 9.03129 6.229 8.47199 6.7883C8.31897 6.94132 8.17123 7.09434 8.01821 7.24207C7.575 7.69585 7.15288 8.11796 6.69383 8.52952C6.68328 8.54008 6.67273 8.54535 6.66745 8.5559C6.21368 9.00968 6.2981 9.4529 6.39308 9.75365C6.39835 9.76948 6.40363 9.78531 6.40891 9.80114C6.78353 10.7087 7.31117 11.5635 8.11319 12.5818L8.11847 12.5871C9.57476 14.3811 11.1102 15.7793 12.8039 16.8504C13.0203 16.9876 13.2419 17.0984 13.4529 17.204C13.6429 17.2989 13.8223 17.3886 13.9753 17.4836C13.9964 17.4942 14.0175 17.51 14.0386 17.5205C14.218 17.6102 14.3869 17.6525 14.561 17.6525C14.9989 17.6525 15.2733 17.3781 15.363 17.2884L17.1675 15.4838C17.3469 15.3044 17.6319 15.0881 17.9643 15.0881C18.2914 15.0881 18.5605 15.2939 18.7241 15.4733C18.7293 15.4786 18.7293 15.4786 18.7346 15.4838L21.6419 18.3912C22.1854 18.9293 22.1854 19.4834 21.6472 20.0427Z" fill="#424242"/>
</svg>
