<svg width="25" height="25" fill="none" xmlns="http://www.w3.org/2000/svg"><path d="M19.758 15.487c-.512-.533-1.129-.818-1.783-.818-.65 0-1.272.28-1.805.812l-1.667 1.662c-.137-.073-.274-.142-.406-.21a6.66 6.66 0 01-.523-.28c-1.562-.992-2.98-2.285-4.342-3.958-.66-.833-1.103-1.535-1.425-2.247.433-.396.834-.808 1.224-1.203.148-.148.296-.301.444-.449 1.108-1.108 1.108-2.543 0-3.651l-1.441-1.44a21.069 21.069 0 01-.49-.502 24.917 24.917 0 00-.993-.981c-.511-.507-1.124-.776-1.767-.776-.644 0-1.267.27-1.794.776l-.01.01-1.795 1.81A3.86 3.86 0 00.04 6.496c-.126 1.54.327 2.975.676 3.915.854 2.306 2.131 4.442 4.036 6.732 2.311 2.76 5.092 4.94 8.268 6.475 1.214.575 2.834 1.255 4.643 1.371.111.006.227.011.333.011 1.219 0 2.242-.438 3.044-1.309.006-.01.016-.015.021-.026.275-.332.591-.633.924-.955.227-.216.459-.443.686-.68.522-.544.797-1.177.797-1.826 0-.655-.28-1.282-.813-1.81l-2.897-2.907zm1.89 5.556c-.006 0-.006.005 0 0-.207.221-.418.422-.645.643-.343.328-.69.67-1.018 1.056-.533.57-1.16.839-1.984.839-.079 0-.163 0-.242-.006-1.568-.1-3.024-.712-4.116-1.234-2.987-1.446-5.609-3.499-7.788-6.1-1.8-2.168-3.002-4.173-3.8-6.326-.49-1.314-.67-2.338-.59-3.303.053-.618.29-1.13.728-1.567l1.8-1.8c.258-.242.532-.374.801-.374.333 0 .602.2.77.369l.017.016c.321.3.627.612.95.944.163.17.332.338.5.512l1.441 1.44c.56.56.56 1.077 0 1.636-.153.153-.3.306-.454.454A27.54 27.54 0 016.694 9.53c-.01.01-.021.015-.027.026-.453.454-.369.897-.274 1.198l.016.047c.375.908.902 1.762 1.704 2.78l.005.006c1.457 1.794 2.992 3.192 4.686 4.263.216.138.438.248.649.354.19.095.37.185.522.28.021.01.043.026.064.036.179.09.348.133.522.133.438 0 .712-.275.802-.365l1.805-1.804c.179-.18.464-.396.796-.396.327 0 .597.206.76.385a.52.52 0 00.01.01l2.908 2.908c.543.538.543 1.092.005 1.652zM13.511 5.947a6.691 6.691 0 013.64 1.889 6.726 6.726 0 011.89 3.64.708.708 0 00.702.591c.042 0 .079-.005.12-.01a.713.713 0 00.587-.823 8.138 8.138 0 00-2.285-4.406 8.138 8.138 0 00-4.406-2.285.716.716 0 00-.823.58.705.705 0 00.575.824zm11.46 5.081a13.388 13.388 0 00-3.762-7.255A13.389 13.389 0 0013.954.01a.71.71 0 00-.818.58.716.716 0 00.586.823 11.988 11.988 0 016.485 3.361 11.954 11.954 0 013.361 6.485.708.708 0 00.702.591c.042 0 .079-.005.121-.01a.699.699 0 00.58-.813z" fill="#424242"/></svg>