<svg width="25" height="25" viewBox="0 0 25 25" fill="none" xmlns="http://www.w3.org/2000/svg">
<path d="M16.4244 17.4663L18.4544 15.4363C18.7278 15.1663 19.0738 14.9814 19.4502 14.9042C19.8266 14.827 20.2174 14.8607 20.575 15.0013L23.0491 15.9891C23.4105 16.1358 23.7204 16.3862 23.9398 16.7088C24.1591 17.0313 24.278 17.4116 24.2816 17.8016V22.3328C24.2795 22.5982 24.2237 22.8603 24.1176 23.1035C24.0115 23.3468 23.8573 23.566 23.6643 23.748C23.4712 23.9301 23.2433 24.0711 22.9943 24.1628C22.7453 24.2544 22.4803 24.2947 22.2153 24.2813C4.87879 23.2028 1.38066 8.5216 0.7191 2.90285C0.68839 2.62693 0.716449 2.34763 0.801431 2.08334C0.886414 1.81904 1.02639 1.57573 1.21216 1.36942C1.39793 1.1631 1.62528 0.99846 1.87924 0.88632C2.13321 0.77418 2.40804 0.717083 2.68566 0.718787H7.06285C7.45345 0.719943 7.83478 0.837929 8.15778 1.05757C8.48078 1.27721 8.73068 1.58846 8.87535 1.95129L9.86316 4.42535C10.0084 4.78157 10.0454 5.17268 9.96969 5.54984C9.89394 5.92699 9.70874 6.27346 9.43722 6.54597L7.40723 8.57597C7.40723 8.57597 8.57629 16.4875 16.4244 17.4663Z" fill="#424242"/>
</svg>
